<?xml version="1.0" encoding="iso-8859-1"?>
<!-- Uploaded to: SVG Repo, www.svgrepo.com, Generator: SVG Repo Mixer Tools -->
<svg fill="#000000" height="800px" width="800px" version="1.1" id="Layer_1" xmlns="http://www.w3.org/2000/svg" xmlns:xlink="http://www.w3.org/1999/xlink" 
	 viewBox="0 0 512 512" xml:space="preserve">
<g>
	<g>
		<path d="M431.543,365.714H80.457c-8.079,0-14.629,6.549-14.629,14.629v43.881v0.004c43.886,0,146.286,29.257,160.914,87.771
			h58.514c14.629-58.514,117.029-87.771,160.914-87.771v-0.004v-43.881C446.171,372.263,439.622,365.714,431.543,365.714z"/>
	</g>
</g>
<g>
	<g>
		<path d="M376.85,117.029l-98.907,98.907v22.446c14.589,23.73,40.776,39.562,70.674,39.562c45.799,0,82.926-37.127,82.926-82.925
			C431.543,159.133,408.747,128.579,376.85,117.029z"/>
	</g>
</g>
<g>
	<g>
		<path d="M135.15,117.029c-31.898,11.551-54.693,42.104-54.693,77.989c0,45.798,37.127,82.925,82.926,82.925
			c29.898,0,56.084-15.831,70.674-39.56v-22.448L135.15,117.029z"/>
	</g>
</g>
<g>
	<g>
		<path d="M102.4,0v83.829c5.663-3.114,43.886-17.508,43.886-17.508V0H102.4z"/>
	</g>
</g>
<g>
	<g>
		<path d="M365.714,0v66.322c0,0,38.223,14.393,43.886,17.508V0H365.714z"/>
	</g>
</g>
<g>
	<g>
		<path d="M474.271,212.114c-2.128,15.718-7.145,30.533-14.5,43.886h44.914v-43.886H474.271z"/>
	</g>
</g>
<g>
	<g>
		<path d="M37.729,212.114H7.314V256h44.914C44.872,242.647,39.856,227.833,37.729,212.114z"/>
	</g>
</g>
</svg>